<svg width="11" height="11" viewBox="0 0 11 11" fill="none" xmlns="http://www.w3.org/2000/svg">
<g clip-path="url(#clip0_1_461)">
<path d="M1.83334 6.41666C1.74661 6.41696 1.66157 6.39264 1.58811 6.34653C1.51465 6.30041 1.45578 6.23441 1.41834 6.15617C1.3809 6.07793 1.36643 5.99068 1.37661 5.90454C1.38679 5.81841 1.4212 5.73693 1.47584 5.66958L6.01334 0.994577C6.04738 0.955289 6.09376 0.92874 6.14487 0.919288C6.19599 0.909835 6.2488 0.918041 6.29463 0.942558C6.34047 0.967075 6.37661 1.00645 6.39712 1.05421C6.41763 1.10197 6.42129 1.15529 6.40751 1.20541L5.52751 3.96458C5.50156 4.03403 5.49284 4.10873 5.50211 4.18229C5.51138 4.25584 5.53835 4.32606 5.58071 4.3869C5.62308 4.44774 5.67957 4.4974 5.74534 4.53161C5.81111 4.56582 5.8842 4.58357 5.95834 4.58333H9.16667C9.25341 4.58303 9.33844 4.60735 9.4119 4.65346C9.48536 4.69957 9.54423 4.76558 9.58167 4.84382C9.61911 4.92205 9.63358 5.00931 9.6234 5.09544C9.61322 5.18158 9.57882 5.26305 9.52417 5.33041L4.98667 10.0054C4.95264 10.0447 4.90625 10.0712 4.85514 10.0807C4.80403 10.0902 4.75122 10.0819 4.70538 10.0574C4.65954 10.0329 4.62341 9.99354 4.60289 9.94578C4.58238 9.89801 4.57872 9.8447 4.59251 9.79458L5.47251 7.03541C5.49846 6.96596 5.50717 6.89126 5.4979 6.8177C5.48864 6.74414 5.46166 6.67393 5.4193 6.61309C5.37694 6.55225 5.32044 6.50259 5.25467 6.46838C5.1889 6.43417 5.11581 6.41642 5.04167 6.41666H1.83334Z" fill="#FDC700" stroke="#FDC700" stroke-width="0.916667" stroke-linecap="round" stroke-linejoin="round"/>
</g>
<defs>
<clipPath id="clip0_1_461">
<rect width="11" height="11" fill="white"/>
</clipPath>
</defs>
</svg>
