<svg width="48" height="48" viewBox="0 0 48 48" fill="none" xmlns="http://www.w3.org/2000/svg">
<path d="M27.675 17.025L29.55 3.075C27.75 2.625 25.95 1.5 24 1.5C22.05 1.5 20.25 2.625 18.375 3.15C16.5 3.6 14.4 3.525 12.75 4.5C11.1 5.475 10.05 7.35 8.7 8.7C7.35 10.05 5.475 11.1 4.5 12.75C3.525 14.4 3.6 16.5 3.075 18.375C2.625 20.25 1.5 22.05 1.5 24C1.5 25.95 2.625 27.75 3.15 29.625C3.6 31.5 3.525 33.6 4.5 35.25C5.475 36.9 7.35 37.95 8.7 39.3C10.05 40.65 11.025 42.525 12.75 43.5C14.4 44.475 16.5 44.4 18.375 44.925C20.25 45.375 22.05 46.5 24 46.5C25.95 46.5 27.75 45.375 29.625 44.85C31.5 44.325 33.6 44.4 35.25 43.425C36.9 42.45 37.95 40.575 39.3 39.225C40.65 37.875 42.525 36.9 43.5 35.175C44.475 33.525 44.4 31.425 44.925 29.55C45.375 27.75 46.5 25.95 46.5 24C46.5 22.05 44.925 17.925 44.925 17.925L27.675 17.025Z" fill="#DDA85F"/>
<path d="M44.5492 16.801C43.7992 17.026 42.7492 16.951 41.6242 16.501C40.0492 15.901 39.0742 14.626 38.7742 13.126C38.0242 13.351 36.2242 13.126 35.0242 12.376C33.2242 11.251 32.8492 8.10098 32.8492 8.10098C30.8242 7.50098 29.3242 5.10098 29.5492 3.07598C27.8992 2.62598 25.7992 2.70098 23.9992 2.70098C22.1992 2.70098 20.5492 3.75098 18.8992 4.20098C17.1742 4.65098 15.2242 4.57598 13.7242 5.47598C12.2242 6.37598 11.2492 8.10098 10.0492 9.30098C8.77422 10.576 7.04922 11.476 6.22422 12.976C5.32422 14.476 5.39922 16.426 4.94922 18.151C4.49922 19.801 3.44922 21.451 3.44922 23.251C3.44922 25.051 4.49922 26.701 4.94922 28.351C5.39922 30.076 5.32422 32.026 6.22422 33.526C7.12422 35.026 8.84922 36.001 10.0492 37.201C11.3242 38.476 12.2242 40.201 13.7242 41.026C15.2242 41.926 17.1742 41.851 18.8992 42.301C20.5492 42.751 22.1992 43.801 23.9992 43.801C25.7992 43.801 27.4492 42.751 29.0992 42.301C30.8242 41.851 32.7742 41.926 34.2742 41.026C35.7742 40.126 36.7492 38.401 37.9492 37.201C39.2242 35.926 40.9492 35.026 41.7742 33.526C42.6742 32.026 42.5992 30.076 43.0492 28.351C43.4992 26.701 45.2992 25.351 45.5242 23.551C46.1242 20.626 44.6242 17.326 44.5492 16.801Z" fill="#F2CB7D"/>
<path d="M37.5754 8.09981L36.5254 9.14981L35.5504 8.09981L36.5254 7.1248L37.5754 8.09981ZM41.8504 13.3498L41.4004 13.8748L40.8754 13.3498L41.4004 12.8248L41.8504 13.3498ZM38.1004 9.89981L37.5754 10.4248L37.0504 9.89981L37.5754 9.37481L38.1004 9.89981ZM33.4504 5.3248L32.9254 5.8498L32.4004 5.3248L32.9254 4.7998L33.4504 5.3248ZM42.9004 15.2248L42.3754 15.7498L41.8504 15.2248L42.3754 14.6998L42.9004 15.2248ZM43.3504 13.3498L42.8254 13.8748L42.3004 13.3498L42.8254 12.8248L43.3504 13.3498Z" fill="#DDA85F"/>
<path d="M8.85005 15.4498C8.10005 16.7248 9.22505 19.0498 10.7251 19.7248C12.9001 20.6248 14.1751 20.7748 15.5251 18.4498C15.9751 17.6248 16.575 15.4498 16.35 14.9248C16.0501 14.1748 14.7751 12.6748 13.9501 12.6748C11.6251 12.7498 9.37505 14.5498 8.85005 15.4498Z" fill="#6D4934"/>
<path d="M9.22584 15.4498C8.70084 16.3498 10.0508 19.0498 11.8508 18.8248C14.3258 18.5248 14.1008 13.4248 13.0508 13.4248C11.2508 13.4248 9.60084 14.7748 9.22584 15.4498Z" fill="#A37F6A"/>
<path d="M33.9004 29.325C34.9504 29.025 35.7004 27.15 35.2504 26.025C34.5754 24.3 33.9004 23.55 31.9504 24.075C31.2754 24.3 29.7004 25.125 29.5504 25.5C29.3254 26.1 29.1754 27.6 29.6254 28.05C30.9004 29.325 33.1504 29.55 33.9004 29.325Z" fill="#6D4934"/>
<path d="M32.8507 27.5255C33.6757 27.3005 34.9507 24.7505 33.6007 24.6005C31.2757 24.2255 29.4757 25.3505 29.7007 26.6255C29.9257 27.9005 32.2507 27.6755 32.8507 27.5255Z" fill="#A37F6A"/>
<path d="M18.6752 33.3766C18.4502 32.4766 16.8002 31.8016 15.7502 32.2516C14.2502 32.8516 13.5752 33.3766 14.1002 35.1016C14.2502 35.7016 15.0002 37.0516 15.3752 37.1266C15.9002 37.3516 17.1752 37.4266 17.5502 37.0516C18.6752 36.0016 18.8252 34.0516 18.6752 33.3766Z" fill="#6D4934"/>
<path d="M17.399 32.6998C17.249 32.0248 14.099 32.9998 14.399 34.1998C14.999 36.2248 14.999 36.5248 15.599 36.4498C16.724 36.1498 17.474 33.2248 17.399 32.6998Z" fill="#A37F6A"/>
<path d="M38.3249 19.1248C37.4249 19.3498 36.7499 20.9998 37.1999 22.0498C37.7999 23.5498 39.2249 23.7748 40.7999 22.9498C42.1499 22.2748 42.2249 19.8748 41.8499 19.4248C40.7249 18.2998 38.9999 18.9748 38.3249 19.1248Z" fill="#6D4934"/>
<path d="M37.9507 19.9503C37.5007 20.4753 37.1257 22.5753 38.2507 22.2753C40.2757 21.6753 41.7007 19.6503 40.8007 19.3503C39.6757 18.9753 38.4757 19.3503 37.9507 19.9503Z" fill="#A37F6A"/>
<path d="M17.0547 12.0836L18.5397 10.5986L20.0247 12.0836L18.5397 13.5686L17.0547 12.0836Z" fill="#6D4934"/>
<path d="M11.0293 25.1117L12.5135 23.6267L13.9985 25.111L12.5143 26.596L11.0293 25.1117ZM26.0233 33.6077L27.5083 32.1227L28.9933 33.6077L27.5083 35.0927L26.0233 33.6077ZM24.0283 29.4662L26.0435 27.451L28.0588 29.4662L26.0435 31.4815L24.0283 29.4662ZM18.5218 7.36974L20.537 5.35449L22.5523 7.36974L20.537 9.38499L18.5218 7.36974Z" fill="#DDA85F"/>
<path d="M30.8419 34.7604L32.3269 33.2754L33.8119 34.7604L32.3269 36.2454L30.8419 34.7604ZM36.8074 26.4114L38.2924 24.9264L39.7774 26.4114L38.2924 27.8964L36.8074 26.4114ZM31.3594 18.4779L32.1019 17.7354L32.8444 18.4779L32.1019 19.2204L31.3594 18.4779ZM10.2949 28.6996L11.0374 27.9571L11.7799 28.6996L11.0374 29.4421L10.2949 28.6996Z" fill="#6D4934"/>
</svg>
