<svg width="43" height="43" viewBox="0 0 43 43" fill="none" xmlns="http://www.w3.org/2000/svg">
<path d="M21.5 41.5C32.546 41.5 41.5 32.546 41.5 21.5C41.5 10.454 32.546 1.5 21.5 1.5C10.454 1.5 1.5 10.454 1.5 21.5C1.5 32.546 10.454 41.5 21.5 41.5Z" stroke="white" stroke-width="3" stroke-linecap="round" stroke-linejoin="round"/>
<path d="M19.5 11.5181L19.52 11.4961M13.5 29.5181L13.52 29.4961M29.5 15.5181L29.52 15.4961M31.5 25.5181L31.52 25.4961M23.5 21.5181L23.52 21.4961M12.5 19.4981C12.2348 19.4981 11.9804 19.3927 11.7929 19.2052C11.6054 19.0177 11.5 18.7633 11.5 18.4981C11.5 18.2329 11.6054 17.9785 11.7929 17.791C11.9804 17.6034 12.2348 17.4981 12.5 17.4981C12.7652 17.4981 13.0196 17.6034 13.2071 17.791C13.3946 17.9785 13.5 18.2329 13.5 18.4981C13.5 18.7633 13.3946 19.0177 13.2071 19.2052C13.0196 19.3927 12.7652 19.4981 12.5 19.4981ZM23.5 33.4981C22.9696 33.4981 22.4609 33.2874 22.0858 32.9123C21.7107 32.5372 21.5 32.0285 21.5 31.4981C21.5 30.9677 21.7107 30.459 22.0858 30.0839C22.4609 29.7088 22.9696 29.4981 23.5 29.4981C24.0304 29.4981 24.5391 29.7088 24.9142 30.0839C25.2893 30.459 25.5 30.9677 25.5 31.4981C25.5 32.0285 25.2893 32.5372 24.9142 32.9123C24.5391 33.2874 24.0304 33.4981 23.5 33.4981Z" stroke="white" stroke-width="3" stroke-linecap="round" stroke-linejoin="round"/>
</svg>
