<svg width="29" height="28" viewBox="0 0 29 28" fill="none" xmlns="http://www.w3.org/2000/svg">
<path d="M2.84086 7.03048L1.84243 7.26017C1.84243 7.26017 0.456801 9.39767 0.154926 11.6711C-0.0353866 13.098 -0.0419491 14.9617 0.0893009 15.8899C0.222426 16.818 0.700551 18.7942 1.45336 20.1864C2.17711 21.527 2.88305 22.0539 3.65368 22.5208C3.98461 22.7195 4.27899 23.402 4.79461 23.732C5.27836 24.0414 5.91586 24.1024 5.91586 24.1024C5.91586 24.1024 7.67836 26.8708 11.4912 27.3508C15.9649 27.9133 18.1549 25.893 18.1549 25.893C18.1549 25.893 19.9456 25.8883 21.6349 25.1645C23.5306 24.3508 24.5431 22.6586 24.5431 22.6586C24.5431 22.6586 26.9177 20.6149 27.6706 18.168C28.2752 16.2039 28.2912 12.4699 27.8271 10.712C27.3631 8.95423 26.4659 7.46642 25.7534 6.51205C25.1862 5.75267 18.8534 2.38705 18.0893 2.08705C17.3271 1.78986 10.2331 1.3258 9.96774 1.52455C9.70336 1.72705 2.84086 7.03048 2.84086 7.03048Z" fill="#AC5811"/>
<path d="M5.31036 3.2774C3.65754 4.62272 2.80254 5.32584 1.94473 7.00865C1.08692 8.6924 1.36348 10.9255 1.51817 11.7505C1.67004 12.5755 1.94661 14.1665 2.09942 14.9615C2.25129 15.7583 2.65723 17.6474 3.77942 18.8174C5.35254 20.4552 6.77754 21.0205 6.77754 21.0205C6.77754 21.0205 7.93254 22.8112 10.7244 23.8349C14.3947 25.1802 16.0466 23.2237 17.4529 22.7033C18.8591 22.1821 20.5419 22.1521 21.981 21.1415C23.4182 20.1318 25.0091 18.9083 26.0497 16.3396C27.0904 13.7708 26.8747 12.6383 26.9057 11.9971C26.9357 11.3549 26.8438 8.26584 25.6513 6.36928C24.4588 4.47272 23.0244 3.33459 22.4713 2.97365C21.2479 2.17865 16.8791 0.277404 15.7794 0.064592C14.6779 -0.149158 10.7497 0.183655 9.19161 0.825842C7.63254 1.46803 5.31036 3.2774 5.31036 3.2774Z" fill="url(#paint0_radial_5264_6907)"/>
<path d="M12.2841 15.3982C12.0244 15.3167 11.7498 14.9295 11.6841 14.1026C11.5923 12.9232 12.4623 12.597 12.4623 12.597C12.4623 12.597 13.4982 12.3232 14.2266 12.0626C14.9044 11.8217 15.3919 11.5123 15.3919 11.5123C15.3919 11.5123 15.4576 10.2485 15.8766 9.87636C16.2985 9.50417 17.0419 9.53698 17.8688 9.63261C18.6938 9.72917 20.0232 10.2795 19.8282 10.781C19.6341 11.2826 19.4063 11.7842 18.6151 12.2389C17.9867 12.5887 17.3953 13.0011 16.8498 13.4698C16.4438 13.8279 15.7013 14.2779 14.4704 14.7326C13.2394 15.1873 12.6591 15.5154 12.2841 15.3982ZM5.31569 4.85417C4.53756 4.6948 3.43881 6.37949 3.23444 6.9373C3.02819 7.49511 2.81725 8.85448 2.79381 9.47511C2.76381 10.2467 2.74975 10.9704 3.07319 11.5592C3.32163 12.0139 3.9235 12.2698 4.46538 11.801C5.00631 11.3323 5.94662 10.0479 6.19506 9.86698C6.4435 9.68698 7.17006 9.44792 6.88413 8.26667C6.76694 7.78386 5.57819 6.78542 5.52006 6.64948C5.46381 6.51542 5.75631 4.94511 5.31569 4.85417ZM10.8169 2.7373C10.8469 3.19011 11.2172 3.91386 11.6185 4.30573C12.2185 4.88886 14.9701 6.8623 15.6826 6.7498C16.3951 6.6373 17.1704 5.35761 17.3982 5.00136C17.6251 4.64511 18.0779 4.14355 18.256 3.91667C18.4341 3.68886 18.9029 3.17136 18.5157 2.65292C18.1266 2.13542 17.1563 1.79511 16.5094 1.74636C15.8626 1.69667 14.8576 1.27761 13.9998 1.31042C13.1419 1.34323 10.7373 1.57011 10.8169 2.7373ZM22.1419 8.77198C22.1954 9.26417 22.8872 9.37198 23.4385 9.72823C23.9888 10.0845 24.3619 10.4576 24.6854 10.3592C25.0088 10.2626 25.4494 9.74511 25.3482 8.83761C25.2197 7.67323 24.4904 6.18261 23.4713 6.23136C22.8544 6.2623 22.9388 7.33386 22.9388 7.33386C22.9388 7.33386 22.1091 8.4823 22.1419 8.77198Z" fill="#FFC86E"/>
<path d="M8.81287 5.73516C8.81287 5.73516 6.60225 5.72109 6.64162 5.94141C6.68381 6.16078 6.876 6.88828 7.45256 6.91641C8.02912 6.94453 8.77256 6.99797 9.12881 6.88828C9.48506 6.77766 10.4741 5.98078 10.4741 5.62453C10.4741 5.26828 10.0757 4.74609 10.0757 4.74609L8.81287 5.73516ZM11.9694 9.78703C11.9694 9.78703 11.9441 9.80391 11.9066 9.83391C11.796 9.92578 11.5851 10.1386 11.6676 10.3777C11.7772 10.6945 12.4213 11.2842 13.0551 11.2842C13.6888 11.2842 14.0301 10.6936 14.1397 10.3092C14.2494 9.92484 14.1941 9.69047 14.1941 9.69047L11.9694 9.78703ZM7.04006 11.587C7.04006 11.587 6.65568 11.7248 6.66975 11.9714C6.68381 12.217 6.78037 12.6717 7.27443 13.1527C7.77412 13.6383 8.49881 13.7714 9.15693 13.5933C9.816 13.4152 10.296 12.9211 10.2426 12.262C10.1882 11.6039 9.55537 11.0948 9.55537 11.0948L7.04006 11.587ZM4.19756 15.2273C4.19756 15.2273 3.78506 15.323 3.82725 15.5977C3.86943 15.8714 4.33537 16.7367 5.076 16.6402C5.81662 16.5436 6.98662 15.6933 6.98662 15.3623C6.98662 15.0323 6.396 14.5936 6.396 14.5936L4.19756 15.2273ZM9.25068 18.6605C9.25068 18.6605 9.09787 19.5464 10.2932 19.8698C12.2863 20.4061 12.4926 19.1967 12.4926 19.1967L9.25068 18.6605ZM17.0769 19.0711C17.0769 19.0711 16.5426 19.6055 17.1491 20.0245C17.718 20.4194 18.4111 20.5937 19.0991 20.5148C19.7507 20.4417 20.196 19.9214 20.196 19.9214L17.0769 19.0711ZM22.0644 13.1367C22.0644 13.1367 21.0557 13.6448 21.8366 14.5242C22.4291 15.1945 23.7866 15.0586 24.3416 14.6808C24.7054 14.4342 24.8132 13.9983 24.6772 13.778C24.5385 13.5577 22.0644 13.1367 22.0644 13.1367ZM18.1644 7.31484C18.1644 7.31484 18.1101 8.46516 19.6616 8.42766C21.8319 8.37422 21.5572 7.02609 21.5572 7.02609L18.1644 7.31484Z" fill="#CF701E"/>
<path d="M19.1682 5.87123C19.1682 5.87123 18.1511 6.50405 18.0404 6.76467C17.9307 7.02436 17.6964 7.84936 18.8767 7.79592C20.0579 7.74155 21.2392 7.69936 21.6376 7.21936C22.0361 6.73842 21.9404 6.2978 21.7764 5.94155C21.6123 5.5853 20.6889 4.23811 19.9557 4.25405C19.4748 4.26342 19.1682 5.87123 19.1682 5.87123Z" fill="#593329"/>
<path d="M19.9504 4.2516C19.9504 4.2516 19.3054 4.17004 18.741 5.17222C18.1785 6.17535 18.0332 6.77347 18.0332 6.77347C18.0332 6.77347 19.1788 6.77816 19.8651 6.6966C20.5523 6.6141 21.0182 6.18754 21.0182 6.18754C21.0182 6.18754 20.4595 4.37629 19.9504 4.2516Z" fill="#925849"/>
<path d="M12.1507 8.93615C12.1507 8.93615 11.5882 8.89865 11.545 9.11615C11.5038 9.33646 11.6275 9.89709 11.8197 10.1427C12.0119 10.3893 12.5885 10.9396 13.165 10.829C13.7416 10.7183 14.0838 10.154 14.1804 9.9599C14.2666 9.77709 14.3604 9.58021 14.1963 9.33459C14.0294 9.08615 12.1507 8.93615 12.1507 8.93615Z" fill="#593329"/>
<path d="M12.9866 8.05678C12.5084 8.00522 11.3553 8.92115 11.5616 9.23615C11.7912 9.58022 11.8306 9.36272 12.4634 9.67865C12.9866 9.93834 13.2134 10.1802 13.5416 10.138C13.8697 10.0958 14.2616 9.55397 14.1941 9.33459C14.1256 9.11334 13.6334 8.12522 12.9866 8.05678Z" fill="#925849"/>
<path d="M7.57522 4.34463L6.45022 5.12275C6.45022 5.12275 6.40803 5.65057 6.64241 5.93838C6.87678 6.22619 6.94428 6.40525 8.04397 6.40525C9.14272 6.40525 10.1721 6.25525 10.3643 5.47244C10.5555 4.68963 10.219 4.18807 10.0127 3.89932C9.80647 3.61057 7.57522 4.34463 7.57522 4.34463Z" fill="#593329"/>
<path d="M7.58942 3.12449C7.33629 3.2323 6.73817 4.04605 6.60036 4.4023C6.46161 4.75855 6.43161 5.13824 6.45036 5.14292C6.67723 5.19917 8.01598 5.32292 8.60661 5.2273C9.19723 5.13167 9.67723 4.87105 9.86942 4.52605C10.0222 4.2523 10.01 3.88855 10.01 3.88855C10.01 3.88855 9.60879 3.16667 9.05848 2.94636C8.51004 2.72605 7.68504 3.0823 7.58942 3.12449Z" fill="#925949"/>
<path d="M6.64575 11.6366C6.64575 11.6366 6.552 11.7791 6.73012 12.0538C6.90825 12.3275 7.25794 12.6566 7.78012 12.8085C8.30325 12.9585 8.67356 13.1647 9.01575 13.1253C9.35981 13.0831 10.0329 12.8085 10.0582 11.8616C10.0864 10.9147 9.89512 10.4741 9.48262 10.0616C9.07012 9.64908 8.772 9.71939 8.772 9.71939L6.64575 11.6366Z" fill="#593329"/>
<path d="M6.76553 10.76C6.62021 11.0037 6.5124 11.7959 6.69053 11.974C6.86865 12.1521 7.93928 12.1643 8.22053 12.1334C8.50459 12.1025 9.4299 11.6665 9.4449 11.3365C9.45803 11.0056 9.28084 10.5678 9.28084 10.4037C9.28084 10.2396 9.48709 9.85527 8.92459 9.71746C8.36209 9.57964 7.06553 10.2518 6.76553 10.76Z" fill="#925849"/>
<path d="M4.90926 14.3202C4.90926 14.3202 4.02519 14.5386 3.96894 14.8405C3.91551 15.1433 4.04207 15.448 4.34394 15.7358C4.64676 16.0236 4.86707 16.3264 5.09863 16.2983C5.33301 16.2702 5.94988 15.7217 6.14207 15.5436C6.33426 15.3655 6.60801 15.0496 6.58269 14.7889C6.56999 14.6481 6.52948 14.5112 6.4635 14.3862C6.39752 14.2612 6.30738 14.1505 6.19832 14.0605C5.95457 13.8542 4.90926 14.3202 4.90926 14.3202Z" fill="#593329"/>
<path d="M5.13064 13.5354C4.71814 13.5448 4.40126 14.0436 4.26533 14.2217C4.12751 14.3998 3.89501 14.8273 3.99158 14.8948C4.0872 14.9632 4.48564 15.0054 4.67783 15.1292C4.87001 15.2539 5.15876 15.4461 5.37908 15.2679C5.59939 15.0898 5.79158 14.5948 5.90126 14.4307C6.01095 14.2667 6.20408 14.0604 6.20408 14.0604C6.20408 14.0604 5.78876 13.5214 5.13064 13.5354Z" fill="#925849"/>
<path d="M10.1716 16.8445C10.0891 16.9402 8.92188 17.888 8.92188 17.888C8.92188 17.888 8.96406 18.713 9.22375 18.9052C9.48438 19.0964 10.2953 19.3711 10.8175 19.4808C11.3406 19.5914 12.2734 19.7152 12.5078 19.6195C12.7422 19.5239 12.9878 19.0148 13.0019 18.3558C13.0159 17.6977 12.7816 17.2055 12.5219 16.9027C12.2622 16.5998 12.0531 16.4883 12.0531 16.4883L10.1716 16.8445Z" fill="#593329"/>
<path d="M11.7246 18.0834C11.8765 17.9118 12.0546 16.4896 12.0546 16.4896C12.0546 16.4896 10.9981 15.6787 10.5565 15.6243C10.1159 15.57 9.59649 15.6103 9.44368 15.7743C9.29368 15.9384 8.70306 16.529 8.75743 16.9134C8.81087 17.2978 8.92149 17.8884 8.92149 17.8884C8.92149 17.8884 11.4077 18.4415 11.7246 18.0825" fill="#925849"/>
<path d="M16.848 18.7568C16.848 18.7568 16.7139 19.6474 17.6936 19.8162C18.6733 19.9831 19.487 20.2053 19.9108 20.1162C20.3345 20.0271 20.7574 19.4599 20.8014 19.0474C20.8455 18.6349 20.8689 18.0396 20.8014 17.8774C20.6233 17.449 19.7983 16.2743 19.397 16.1506C19.172 16.0821 18.9592 16.1196 18.9592 16.1196L16.848 18.7568Z" fill="#593329"/>
<path d="M17.4809 17.1974C17.0431 17.6821 16.8181 18.3833 16.8415 18.7537C16.864 19.1024 18.5262 18.9505 18.7231 18.8305C18.9199 18.7115 19.3493 18.1771 19.3624 17.999C19.3756 17.8208 19.2406 17.263 19.2181 16.919C19.1937 16.574 19.1853 16.1052 18.9949 16.1174C18.8046 16.1287 18.1043 16.5083 17.4809 17.1974Z" fill="#925849"/>
<path d="M23.1015 11.1523C23.1015 11.1523 23.4887 11.2086 23.964 11.4945C24.519 11.8273 25.1002 12.6758 25.0562 13.3677C25.0121 14.0586 24.4093 14.3708 23.6752 14.382C22.9421 14.3933 22.2249 14.3539 22.0909 13.9742C21.9577 13.5945 23.1015 11.1523 23.1015 11.1523Z" fill="#593329"/>
<path d="M22.5171 11.3838C22.4028 11.5432 22.1046 12.0307 22.0043 12.6532C21.904 13.2757 21.9715 13.9901 22.1937 14.1138C22.4168 14.2357 23.6421 13.1782 23.7078 13.0657C23.7762 12.9532 23.3159 11.2498 23.1715 11.172C23.0262 11.0951 22.6624 11.1842 22.5171 11.3838Z" fill="#925849"/>
<defs>
<radialGradient id="paint0_radial_5264_6907" cx="0" cy="0" r="1" gradientUnits="userSpaceOnUse" gradientTransform="translate(14.1304 12.148) scale(12.4692 12.4692)">
<stop offset="0.507" stop-color="#F29F58"/>
<stop offset="0.715" stop-color="#F09D56"/>
<stop offset="0.826" stop-color="#EB9550"/>
<stop offset="0.914" stop-color="#E18745"/>
<stop offset="0.99" stop-color="#D47436"/>
<stop offset="1" stop-color="#D27133"/>
</radialGradient>
</defs>
</svg>
