<svg width="13" height="13" viewBox="0 0 13 13" fill="none" xmlns="http://www.w3.org/2000/svg">
<g clip-path="url(#clip0_1_1606)">
<path d="M11.7704 9.75002L7.43711 2.16669C7.34262 1.99996 7.2056 1.86129 7.04002 1.76481C6.87445 1.66833 6.68624 1.61749 6.49461 1.61749C6.30297 1.61749 6.11477 1.66833 5.94919 1.76481C5.78361 1.86129 5.64659 1.99996 5.55211 2.16669L1.21877 9.75002C1.12327 9.91542 1.07319 10.1031 1.07361 10.2941C1.07403 10.4851 1.12494 10.6726 1.22118 10.8376C1.31742 11.0026 1.45556 11.1392 1.62161 11.2336C1.78765 11.3279 1.9757 11.3767 2.16669 11.375H10.8334C11.0234 11.3748 11.2101 11.3246 11.3746 11.2295C11.5392 11.1343 11.6758 10.9975 11.7707 10.8329C11.8657 10.6682 11.9156 10.4815 11.9156 10.2914C11.9155 10.1013 11.8655 9.91463 11.7704 9.75002Z" stroke="#FE9A00" stroke-width="1.08333" stroke-linecap="round" stroke-linejoin="round"/>
<path d="M6.5 4.875V7.04167" stroke="#FE9A00" stroke-width="1.08333" stroke-linecap="round" stroke-linejoin="round"/>
<path d="M6.5 9.20831H6.50542" stroke="#FE9A00" stroke-width="1.08333" stroke-linecap="round" stroke-linejoin="round"/>
</g>
<defs>
<clipPath id="clip0_1_1606">
<rect width="13" height="13" fill="white"/>
</clipPath>
</defs>
</svg>
